# xmcd
#
# Track frame offsets:
#	150
#	21328
#	56628
#	72548
#	111467
#	136920
#	180637
#	195857
#	215540
#	245732
#	272045
#
# Disc length: 4103 seconds
#
# Revision: 1
# Processed by: cddbd v1.5.2PL0 Copyright (c) Steve Scherf et al.
# Submitted via: audiograbber 1.83.01
#
DISCID=aa10050b
DTITLE=Grateful Dead - 77-05-03 The Palladium, New York NY
DYEAR=1900
DGENRE=
TTITLE0=Promised Land
TTITLE1=Bertha
TTITLE2=Me and My Uncle
TTITLE3=Peggy-O
TTITLE4=Jack Straw
TTITLE5=Row Jimmy
TTITLE6=Lazy Lightning
TTITLE7=Supplication
TTITLE8=Deal
TTITLE9=Good Lovin'
TTITLE10=Ship Of Fools
EXTD=
EXTT0=
EXTT1=
EXTT2=
EXTT3=
EXTT4=
EXTT5=
EXTT6=
EXTT7=
EXTT8=
EXTT9=
EXTT10=
PLAYORDER=
